<?xml version="1.0" encoding="iso-8859-1"?>
<!-- Generator: Adobe Illustrator 16.0.0, SVG Export Plug-In . SVG Version: 6.00 Build 0)  -->
<!DOCTYPE svg PUBLIC "-//W3C//DTD SVG 1.1//EN" "http://www.w3.org/Graphics/SVG/1.1/DTD/svg11.dtd">
<svg version="1.1" id="Capa_1" xmlns="http://www.w3.org/2000/svg" xmlns:xlink="http://www.w3.org/1999/xlink" x="0px" y="0px"
	 width="575.568px" height="575.567px" viewBox="0 0 575.568 575.567" style="enable-background:new 0 0 575.568 575.567;"
	 xml:space="preserve">
<g>
	<g>
		<path d="M287.784,575.567c158.686,0,287.78-129.101,287.78-287.78C575.566,129.102,446.47,0,287.784,0
			C129.099,0,0.003,129.102,0.003,287.787C0.003,446.467,129.099,575.567,287.784,575.567z M287.784,30.6
			c141.813,0,257.18,115.375,257.18,257.187s-115.367,257.181-257.18,257.181c-141.812,0-257.181-115.368-257.181-257.181
			S145.972,30.6,287.784,30.6z"/>
		<path d="M125.292,351.312c3.66-3.342,5.863-7.576,7.215-12.233c2.742-9.438,5.38-18.905,7.999-28.379
			c4.039-14.633,8.029-29.284,12.044-43.929c0.092-0.324,0-0.783,0.526-0.875c0.447,0.336,0.441,0.881,0.569,1.334
			c5.232,19.076,10.429,38.165,15.68,57.241c1.523,5.526,2.925,11.089,4.834,16.505c1.646,4.67,4.156,8.825,8.268,11.727
			c7.663,5.41,19.235,4.56,26.163-3.556c2.889-3.379,4.7-7.289,5.912-11.519c2.693-9.388,5.459-18.758,8.097-28.158
			c5.147-18.316,10.239-36.652,15.343-54.981c2.417-8.678,4.816-17.363,7.209-26.047c0.435-1.579,0.404-1.622-1.181-1.628
			c-8.642-0.012-17.289-0.012-25.931,0c-1.457,0-1.469,0.024-1.854,1.505c-1.236,4.755-2.467,9.511-3.685,14.272
			c-6.383,25.025-12.76,50.056-19.149,75.08c-0.245,0.948-0.355,1.952-1.059,3.219c-0.202-0.74-0.3-1.095-0.392-1.45
			c-5.771-21.934-11.53-43.874-17.32-65.802c-1.273-4.81-2.583-9.614-4.002-14.382c-1.022-3.427-2.681-6.585-5.392-8.978
			c-5.698-5.019-12.313-5.367-19.174-3.164c-4.75,1.524-7.626,5.19-9.608,9.608c-1.371,3.066-2.136,6.328-2.999,9.553
			c-6.487,24.156-12.833,48.348-19.113,72.559c-0.147,0.562-0.153,1.229-0.753,1.897c-0.226-0.692-0.416-1.188-0.551-1.702
			c-3.574-13.978-7.142-27.956-10.71-41.934c-4.143-16.236-8.286-32.473-12.436-48.709c-0.398-1.554-0.417-1.573-1.989-1.573
			c-8.519-0.006-17.038-0.006-25.557,0c-1.854,0-1.848,0.019-1.401,1.744c0.061,0.245,0.098,0.496,0.165,0.741
			c2.736,9.834,5.472,19.664,8.207,29.498c6.646,23.917,13.28,47.84,20.159,71.69c1.169,4.052,2.081,8.207,3.856,12.057
			c3.513,7.589,8.972,12.772,17.717,13.47C116.375,356.447,121.229,355.021,125.292,351.312z"/>
		<path d="M379.07,304.36c1.939,8.488,6.965,14.088,15.479,16.389c3.004,0.814,6.059,1.126,9.168,1.12
			c14.258-0.012,28.518-0.006,42.777-0.006s28.52-0.006,42.779,0.006c2.791,0,5.545-0.208,8.262-0.845
			c8.574-2.02,14.102-7.209,16.305-15.802c0.783-3.072,1.082-6.199,1.082-9.369c0-14.26,0.006-28.52,0.006-42.779
			c0-5.238,0-10.471,0-15.71c0-2.16-0.293-4.284-0.898-6.346c-1.953-6.616-7.375-10.918-14.463-11.444
			c-5.293-0.392-10.594-0.123-15.893-0.178c-2.779-0.031-2.326-0.098-2.326,2.326c-0.012,15.08-0.018,30.159,0,45.239
			c0,3.929-0.287,7.815-1.23,11.634c-2.973,12.118-10.396,19.927-22.582,22.95c-6.83,1.695-13.727,1.756-20.631,0.281
			c-12.828-2.741-20.723-10.526-23.881-23.219c-1.016-4.076-1.271-8.219-1.285-12.387c-0.029-14.761-0.012-29.529-0.012-44.291
			c0-0.44-0.029-0.887,0.006-1.322c0.086-0.894-0.287-1.236-1.188-1.218c-5.678,0.098-11.357-0.22-17.031,0.202
			c-7.436,0.557-12.9,5.208-14.67,12.399c-0.404,1.658-0.6,3.341-0.6,5.061c0.006,20,0.006,40,0,60.006
			C378.244,299.513,378.519,301.955,379.07,304.36z"/>
		<path d="M286.383,266.116c-8.268-0.012-16.53-0.012-24.798,0c-1.304,0-1.304,0.049-1.346,1.426c-0.006,0.251,0,0.508,0,0.759
			c0,28.201,0,56.408,0,84.609c0,0.44,0.012,0.881,0.006,1.321c-0.006,0.643,0.331,0.9,0.937,0.888
			c0.312-0.006,0.63,0.006,0.948,0.006c7.889,0,15.771,0,23.66,0c2.167,0,2.001,0.092,2.001-2.099c0-14.07,0-28.14,0-42.21
			c0-14.009,0-28.011,0-42.02c0-0.441,0.013-0.881,0-1.322C287.748,266.159,287.748,266.122,286.383,266.116z"/>
		<path d="M341.927,266.116c-8.01-0.006-16.016-0.006-24.027,0c-1.664,0-1.664,0.024-1.695,1.64c0,0.189,0,0.379,0,0.569
			c0,28.188,0,56.372,0,84.561c0,0.251,0,0.502,0,0.759c0.037,1.45,0.037,1.487,1.477,1.487c8.193,0.012,16.395,0.012,24.59,0
			c1.469,0,1.469-0.037,1.506-1.451c0.012-0.44,0-0.881,0-1.321c0-13.874,0-27.742,0-41.616c0-0.44,0-0.881,0-1.322
			c0-13.807,0-27.619,0-41.426C343.777,266.128,343.763,266.116,341.927,266.116z"/>
		<path d="M426.244,267.42c0.146,2.986,0.838,5.863,2.166,8.543c3.311,6.677,8.721,10.184,16.188,10.165
			c7.381-0.018,12.748-3.495,16.033-10.092c1.666-3.341,2.314-6.934,2.314-10.649c0-7.527,0-15.055,0-22.583h0.006
			c0-8.109,0-16.212,0-24.321c0-1.708-0.018-1.72-1.658-1.732c-1.928-0.012-3.861-0.006-5.789-0.006c-9.199,0-18.404-0.006-27.602,0
			c-1.715,0-1.715,0.019-1.738,1.646c-0.006,0.385,0,0.771,0,1.156c0,14.088,0,28.177,0,42.271
			C426.164,263.687,426.146,265.559,426.244,267.42z"/>
		<path d="M337.039,248.895c5.826-2.772,8.879-7.417,9.131-13.868c0.049-3.366-1.004-6.34-2.938-9.033
			c-4.768-6.634-14.658-8.574-21.738-4.431c-8.844,5.178-10.301,15.955-4.395,23.103
			C321.755,250.308,330.14,252.175,337.039,248.895z"/>
		<path d="M283.011,247.873c7.883-4.927,9.645-15.312,3.782-22.503c-3.262-3.996-7.626-5.845-12.754-5.937
			c-2.681-0.049-5.245,0.471-7.656,1.683c-9.583,4.829-11.713,16.953-4.37,24.48C267.301,251.024,276.077,252.206,283.011,247.873z"
			/>
	</g>
</g>
<g>
</g>
<g>
</g>
<g>
</g>
<g>
</g>
<g>
</g>
<g>
</g>
<g>
</g>
<g>
</g>
<g>
</g>
<g>
</g>
<g>
</g>
<g>
</g>
<g>
</g>
<g>
</g>
<g>
</g>
</svg>
